<!-- Generated by IcoMoon.io -->
<svg version="1.1" xmlns="http://www.w3.org/2000/svg" width="56" height="32" viewBox="0 0 56 32">
<title>arrow2</title>
<path fill="#ccc" d="M7.040 30.587l20.96-20.933 21.227 21.227c0.718 0.692 1.696 1.118 2.773 1.118 2.208 0 3.999-1.789 4-3.997v-0c0-0.005 0-0.010 0-0.016 0-1.073-0.427-2.046-1.121-2.758l0.001 0.001-24-24c-0.717-0.756-1.729-1.227-2.851-1.227-0.010 0-0.021 0-0.031 0h-0.025c-0.003 0-0.007-0-0.011-0-1.127 0-2.145 0.47-2.867 1.225l-0.001 0.001-24 24h0.027c-0.74 0.726-1.199 1.737-1.199 2.855 0 2.209 1.791 4 4 4 1.258 0 2.38-0.58 3.113-1.488l0.006-0.008z"></path>
</svg>
