<!-- Generated by IcoMoon.io -->
<svg version="1.1" xmlns="http://www.w3.org/2000/svg" width="51" height="32" viewBox="0 0 51 32">
<title>arrow---down2</title>
<path fill="#ccc" d="M8.832 5.376l16.768 16.768 16.981-16.981c0.57-0.532 1.338-0.859 2.181-0.859 1.767 0 3.2 1.433 3.2 3.2 0 0.844-0.327 1.612-0.861 2.183l0.002-0.002-19.2 19.2c-0.584 0.611-1.405 0.99-2.315 0.99s-1.731-0.38-2.314-0.989l-0.001-0.001-19.2-19.2c-0.553-0.574-0.894-1.357-0.894-2.219 0-1.767 1.433-3.2 3.2-3.2 0.007 0 0.014 0 0.020 0h-0.001c0.981 0 1.835 0.427 2.432 1.109z"></path>
</svg>
